<svg width="326" height="67" viewBox="0 0 326 67" fill="none" xmlns="http://www.w3.org/2000/svg">
<path d="M14.8115 30.9865C16.3671 30.7883 17.4759 30.5298 18.1461 30.2196C19.3459 29.6939 19.95 28.8667 19.95 27.7465C19.95 26.385 19.4866 25.4458 18.5681 24.9288C17.6497 24.4118 16.2926 24.1532 14.5136 24.1532C12.5112 24.1532 11.0962 24.6616 10.2687 25.6784C9.67297 26.4281 9.27579 27.4449 9.0772 28.7288H1.02605C1.19981 25.8163 1.9859 23.4294 3.37602 21.5595C5.59361 18.6298 9.39991 17.1649 14.7867 17.1649C18.2951 17.1649 21.4146 17.8887 24.1369 19.3278C26.8593 20.7754 28.2246 23.4984 28.2246 27.5052V42.7572C28.2246 43.8171 28.2411 45.0924 28.2825 46.6004C28.3404 47.7378 28.5059 48.5133 28.779 48.9183C29.052 49.3233 29.4657 49.6594 30.0119 49.9265V51.2104H20.9429C20.6864 50.5383 20.5127 49.9093 20.4134 49.3233C20.3141 48.7288 20.2396 48.0653 20.1817 47.3156C19.0232 48.6167 17.691 49.7283 16.1768 50.6417C14.3729 51.7188 12.3291 52.2617 10.0453 52.2617C7.14095 52.2617 4.73305 51.4 2.84645 49.6852C0.951576 47.9705 0 45.5319 0 42.3781C0 38.2936 1.52252 35.3294 4.57584 33.5026C6.2473 32.5031 8.70485 31.7965 11.9485 31.3656L14.8115 30.9865ZM19.9169 35.0451C19.379 35.3897 18.8412 35.6741 18.2951 35.8809C17.749 36.0963 17.0042 36.2945 16.0527 36.4755L14.1495 36.8374C12.3705 37.1648 11.0879 37.5612 10.3101 38.0265C8.99446 38.8193 8.34077 40.0515 8.34077 41.7146C8.34077 43.1967 8.73795 44.2738 9.54885 44.9287C10.3515 45.5922 11.3279 45.9196 12.4781 45.9196C14.2985 45.9196 15.9782 45.3682 17.5173 44.2738C19.0563 43.1794 19.8507 41.1717 19.9086 38.2678L19.9169 35.0451Z" fill="#FF0137"/>
<path d="M75.4724 18.087C76.8377 18.6557 78.0788 19.6553 79.1959 21.0771C80.0896 22.2404 80.7019 23.6622 81.008 25.3511C81.1984 26.4713 81.2977 28.1085 81.2977 30.2627L81.2397 51.2191H72.6921V30.0473C72.6921 28.7892 72.4935 27.7466 72.1046 26.9366C71.3599 25.3942 69.9946 24.6186 68.0004 24.6186C65.6918 24.6186 64.1031 25.6182 63.226 27.6087C62.7792 28.6686 62.5558 29.9353 62.5558 31.426V51.2191H54.1488V31.4174C54.1488 29.4441 53.9585 28.0137 53.5613 27.1176C52.858 25.5062 51.4844 24.7134 49.4323 24.7134C47.0492 24.7134 45.4439 25.5148 44.6248 27.1176C44.1779 28.0309 43.9545 29.3924 43.9545 31.202V51.2105H35.4896V18.0267H43.5987V22.878C44.633 21.1546 45.6094 19.9224 46.5279 19.19C48.1497 17.8888 50.2515 17.2339 52.8249 17.2339C55.2659 17.2339 57.2352 17.794 58.7412 18.9142C59.9493 19.9483 60.8677 21.2839 61.4966 22.9125C62.5889 20.9651 63.9459 19.526 65.5677 18.6126C67.2888 17.6992 69.2002 17.2425 71.3102 17.2425C72.7252 17.2339 74.1071 17.5183 75.4724 18.087Z" fill="#FF0137"/>
<path d="M109.895 18.6384C112.12 19.681 113.957 21.3183 115.414 23.5587C116.721 25.5319 117.565 27.8241 117.954 30.435C118.177 31.9602 118.268 34.1661 118.227 37.0356H94.9755C95.1079 40.3703 96.2167 42.7141 98.3184 44.0497C99.5927 44.8856 101.124 45.2992 102.919 45.2992C104.822 45.2992 106.37 44.7908 107.553 43.774C108.198 43.2225 108.777 42.4642 109.274 41.4819H117.797C117.573 43.4552 116.539 45.4543 114.702 47.4879C111.839 50.7193 107.834 52.3392 102.687 52.3392C98.4425 52.3392 94.6859 50.9778 91.4423 48.2462C88.1986 45.5232 86.5685 41.0855 86.5685 34.933C86.5685 29.1769 88.0331 24.7564 90.9706 21.6802C93.8998 18.6039 97.7061 17.0701 102.39 17.0701C105.161 17.0787 107.669 17.6044 109.895 18.6384ZM97.4082 26.1438C96.225 27.4104 95.4885 29.1252 95.1824 31.2881H109.564C109.415 28.9787 108.67 27.2295 107.338 26.0317C106.006 24.834 104.359 24.2394 102.39 24.2394C100.246 24.248 98.5832 24.8771 97.4082 26.1438Z" fill="#FF0137"/>
<path d="M140.295 17.1908C140.403 17.1994 140.643 17.2166 141.015 17.2338V26.1438C140.486 26.0834 140.022 26.0404 139.609 26.0231C139.195 26.0059 138.864 25.9887 138.616 25.9887C135.256 25.9887 133.005 27.1261 131.847 29.4096C131.202 30.6935 130.879 32.6668 130.879 35.3208V51.2104H122.472V17.9663H130.44V23.7655C131.731 21.5509 132.857 20.0343 133.808 19.2244C135.372 17.8629 137.399 17.1821 139.898 17.1821C140.055 17.1735 140.188 17.1735 140.295 17.1908Z" fill="#FF0137"/>
<path d="M155.165 17.3287H146.7V51.2105H155.165V17.3287Z" fill="#FF0137"/>
<path d="M181.205 29.8921C181.048 28.6513 180.65 27.5311 179.997 26.5401C179.062 25.1959 177.597 24.5324 175.619 24.5324C172.798 24.5324 170.87 25.9887 169.836 28.8926C169.289 30.435 169.016 32.4858 169.016 35.0364C169.016 37.4664 169.289 39.4225 169.836 40.9046C170.837 43.6706 172.715 45.0493 175.471 45.0493C177.432 45.0493 178.813 44.5065 179.641 43.4035C180.46 42.3091 180.965 40.8873 181.139 39.1295H189.661C189.463 41.7749 188.544 44.2738 186.906 46.6348C184.283 50.4349 180.41 52.3392 175.264 52.3392C170.125 52.3392 166.344 50.7537 163.919 47.5827C161.495 44.4117 160.287 40.2928 160.287 35.2432C160.287 29.5388 161.627 25.1011 164.3 21.9301C166.973 18.759 170.671 17.1735 175.38 17.1735C179.384 17.1735 182.661 18.1042 185.218 19.9826C187.767 21.8525 189.281 25.1614 189.744 29.8921H181.205Z" fill="#FF0137"/>
<path d="M208.23 30.9865C209.785 30.7883 210.894 30.5298 211.564 30.2196C212.764 29.6939 213.368 28.8667 213.368 27.7465C213.368 26.385 212.905 25.4458 211.986 24.9288C211.068 24.4118 209.711 24.1532 207.932 24.1532C205.929 24.1532 204.514 24.6616 203.687 25.6784C203.091 26.4281 202.694 27.4449 202.495 28.7288H194.444C194.618 25.8163 195.404 23.4294 196.802 21.5595C199.02 18.6298 202.826 17.1649 208.213 17.1649C211.721 17.1649 214.841 17.8887 217.563 19.3278C220.294 20.7754 221.659 23.4984 221.659 27.5052V42.7572C221.659 43.8171 221.676 45.0924 221.717 46.6004C221.775 47.7378 221.941 48.5133 222.214 48.9183C222.487 49.3233 222.9 49.6594 223.447 49.9265V51.2104H214.361C214.105 50.5383 213.931 49.9093 213.831 49.3233C213.732 48.7288 213.658 48.0653 213.6 47.3156C212.441 48.6167 211.109 49.7283 209.595 50.6417C207.791 51.7188 205.747 52.2617 203.463 52.2617C200.559 52.2617 198.159 51.4 196.265 49.6852C194.37 47.9705 193.418 45.5319 193.418 42.3781C193.418 38.2936 194.941 35.3294 197.994 33.5026C199.665 32.5031 202.123 31.7965 205.375 31.3656L208.23 30.9865ZM213.327 35.0451C212.797 35.3897 212.251 35.6741 211.705 35.8809C211.159 36.0963 210.414 36.2945 209.462 36.4755L207.559 36.8374C205.78 37.1648 204.498 37.5612 203.72 38.0265C202.404 38.8193 201.751 40.0515 201.751 41.7146C201.751 43.1967 202.148 44.2738 202.959 44.9287C203.761 45.5922 204.738 45.9196 205.888 45.9196C207.717 45.9196 209.388 45.3682 210.927 44.2738C212.466 43.1794 213.261 41.1717 213.318 38.2678L213.327 35.0451Z" fill="#FF0137"/>
<path d="M254.799 19.8706C256.892 21.6716 257.935 24.653 257.935 28.8236V51.2104H249.379V30.9865C249.379 29.2372 249.156 27.893 248.709 26.9624C247.898 25.2562 246.342 24.4031 244.058 24.4031C241.245 24.4031 239.317 25.6526 238.275 28.1515C237.728 29.4785 237.455 31.1588 237.455 33.2183V51.2191H229.106V18.0266H237.191V22.8779C238.258 21.1718 239.276 19.9396 240.227 19.1899C241.94 17.8456 244.108 17.1735 246.731 17.1735C250.024 17.1735 252.714 18.0697 254.799 19.8706Z" fill="#FF0137"/>
<path d="M277.827 30.9865C279.383 30.7883 280.491 30.5298 281.162 30.2196C282.361 29.6939 282.957 28.8667 282.957 27.7465C282.957 26.385 282.494 25.4458 281.575 24.9288C280.657 24.4118 279.3 24.1532 277.521 24.1532C275.518 24.1532 274.103 24.6616 273.276 25.6784C272.68 26.4281 272.283 27.4449 272.093 28.7288H264.042C264.215 25.8163 265.001 23.4294 266.392 21.5595C268.609 18.6298 272.415 17.1649 277.802 17.1649C281.311 17.1649 284.43 17.8887 287.161 19.3278C289.883 20.7754 291.248 23.4984 291.248 27.5052V42.7572C291.248 43.8171 291.265 45.0924 291.306 46.6004C291.364 47.7378 291.53 48.5133 291.803 48.9183C292.076 49.3233 292.49 49.6594 293.036 49.9265V51.2104H283.958C283.702 50.5383 283.528 49.9093 283.429 49.3233C283.33 48.7288 283.255 48.0653 283.197 47.3156C282.039 48.6167 280.707 49.7283 279.192 50.6417C277.388 51.7188 275.345 52.2617 273.061 52.2617C270.156 52.2617 267.757 51.4 265.862 49.6852C263.967 47.9705 263.016 45.5319 263.016 42.3781C263.016 38.2936 264.538 35.3294 267.591 33.5026C269.263 32.5031 271.72 31.7965 274.972 31.3656L277.827 30.9865ZM282.932 35.0451C282.395 35.3897 281.857 35.6741 281.319 35.8809C280.773 36.0963 280.028 36.2945 279.076 36.4755L277.173 36.8374C275.394 37.1648 274.112 37.5612 273.334 38.0265C272.018 38.8193 271.365 40.0515 271.365 41.7146C271.365 43.1967 271.77 44.2738 272.573 44.9287C273.375 45.5922 274.352 45.9196 275.502 45.9196C277.322 45.9196 279.01 45.3682 280.541 44.2738C282.08 43.1794 282.874 41.1717 282.932 38.2678V35.0451Z" fill="#FF0137"/>
<path d="M305.067 40.5945C305.241 42.1369 305.63 43.2399 306.217 43.8861C307.26 45.0408 309.179 45.6267 311.984 45.6267C313.631 45.6267 314.938 45.3769 315.915 44.8685C316.883 44.3601 317.371 43.6018 317.371 42.5764C317.371 41.6026 316.982 40.8616 316.196 40.3532C315.418 39.8448 312.506 38.9745 307.466 37.7336C303.834 36.7944 301.285 35.6311 299.796 34.2265C298.315 32.8392 297.57 30.8487 297.57 28.2464C297.57 25.1788 298.729 22.542 301.045 20.3274C303.362 18.1215 306.631 17.0185 310.834 17.0185C314.823 17.0185 318.083 17.8457 320.59 19.5002C323.105 21.1546 324.545 24.0241 324.918 28.0827H316.569C316.453 26.9625 316.147 26.0835 315.658 25.4286C314.74 24.2481 313.168 23.6536 310.958 23.6536C309.138 23.6536 307.839 23.9465 307.069 24.5411C306.3 25.127 305.911 25.825 305.911 26.6178C305.911 27.6173 306.325 28.3412 307.144 28.7806C307.963 29.2459 310.867 30.0473 315.857 31.1934C319.183 32.0034 321.674 33.2356 323.337 34.8814C324.975 36.5445 325.795 38.6298 325.795 41.1373C325.795 44.429 324.611 47.1175 322.261 49.2028C319.903 51.2881 316.262 52.3307 311.331 52.3307C306.3 52.3307 302.593 51.2278 300.193 49.0218C297.794 46.8159 296.602 44.0068 296.602 40.5858H305.067V40.5945Z" fill="#FF0137"/>
<path d="M325.249 0H0.0579224V8.548H325.249V0Z" fill="#FF0137"/>
<path d="M325.249 58.3884H0.0579224V66.9364H325.249V58.3884Z" fill="#FF0137"/>
</svg>