<svg width="358" height="79" viewBox="0 0 358 79" fill="none" xmlns="http://www.w3.org/2000/svg">
<path d="M30.8115 42.9865C32.3671 42.7883 33.4759 42.5298 34.1461 42.2196C35.3459 41.6939 35.95 40.8667 35.95 39.7465C35.95 38.385 35.4866 37.4458 34.5681 36.9288C33.6497 36.4118 32.2926 36.1532 30.5136 36.1532C28.5112 36.1532 27.0962 36.6616 26.2687 37.6784C25.673 38.4281 25.2758 39.4449 25.0772 40.7288H17.026C17.1998 37.8163 17.9859 35.4294 19.376 33.5595C21.5936 30.6298 25.3999 29.1649 30.7867 29.1649C34.2951 29.1649 37.4146 29.8887 40.1369 31.3278C42.8593 32.7754 44.2246 35.4984 44.2246 39.5052V54.7572C44.2246 55.8171 44.2411 57.0924 44.2825 58.6004C44.3404 59.7378 44.5059 60.5133 44.779 60.9183C45.052 61.3233 45.4657 61.6594 46.0119 61.9265V63.2104H36.9429C36.6864 62.5383 36.5127 61.9093 36.4134 61.3233C36.3141 60.7288 36.2396 60.0653 36.1817 59.3156C35.0232 60.6167 33.691 61.7283 32.1768 62.6417C30.3729 63.7188 28.3291 64.2617 26.0453 64.2617C23.141 64.2617 20.7331 63.4 18.8465 61.6852C16.9516 59.9705 16 57.5319 16 54.3781C16 50.2936 17.5225 47.3294 20.5758 45.5026C22.2473 44.5031 24.7048 43.7965 27.9485 43.3656L30.8115 42.9865ZM35.9169 47.0451C35.379 47.3897 34.8412 47.6741 34.2951 47.8809C33.749 48.0963 33.0042 48.2945 32.0527 48.4755L30.1495 48.8374C28.3705 49.1648 27.0879 49.5612 26.3101 50.0265C24.9945 50.8193 24.3408 52.0515 24.3408 53.7146C24.3408 55.1967 24.7379 56.2738 25.5489 56.9287C26.3515 57.5922 27.3279 57.9196 28.4781 57.9196C30.2985 57.9196 31.9782 57.3682 33.5173 56.2738C35.0563 55.1794 35.8507 53.1717 35.9086 50.2678L35.9169 47.0451Z" fill="#FF0137"/>
<path d="M91.4724 30.087C92.8377 30.6557 94.0788 31.6553 95.1959 33.0771C96.0896 34.2404 96.7019 35.6622 97.008 37.3511C97.1984 38.4713 97.2977 40.1085 97.2977 42.2627L97.2397 63.2191H88.6921V42.0473C88.6921 40.7892 88.4935 39.7466 88.1046 38.9366C87.3599 37.3942 85.9946 36.6186 84.0004 36.6186C81.6918 36.6186 80.1031 37.6182 79.226 39.6087C78.7792 40.6686 78.5558 41.9353 78.5558 43.426V63.2191H70.1488V43.4174C70.1488 41.4441 69.9585 40.0137 69.5613 39.1176C68.858 37.5062 67.4844 36.7134 65.4323 36.7134C63.0492 36.7134 61.4439 37.5148 60.6248 39.1176C60.1779 40.0309 59.9545 41.3924 59.9545 43.202V63.2105H51.4896V30.0267H59.5987V34.878C60.633 33.1546 61.6094 31.9224 62.5279 31.19C64.1497 29.8888 66.2515 29.2339 68.8249 29.2339C71.2659 29.2339 73.2352 29.794 74.7412 30.9142C75.9493 31.9483 76.8677 33.2839 77.4966 34.9125C78.5889 32.9651 79.9459 31.526 81.5677 30.6126C83.2888 29.6992 85.2002 29.2425 87.3102 29.2425C88.7252 29.2339 90.1071 29.5183 91.4724 30.087Z" fill="#FF0137"/>
<path d="M125.895 30.6384C128.12 31.681 129.957 33.3183 131.414 35.5587C132.721 37.5319 133.565 39.8241 133.954 42.435C134.177 43.9602 134.268 46.1661 134.227 49.0356H110.976C111.108 52.3703 112.217 54.7141 114.318 56.0497C115.593 56.8856 117.124 57.2992 118.919 57.2992C120.822 57.2992 122.37 56.7908 123.553 55.774C124.198 55.2225 124.777 54.4642 125.274 53.4819H133.797C133.573 55.4552 132.539 57.4543 130.702 59.4879C127.839 62.7193 123.834 64.3392 118.687 64.3392C114.443 64.3392 110.686 62.9778 107.442 60.2462C104.199 57.5232 102.569 53.0855 102.569 46.933C102.569 41.1769 104.033 36.7564 106.971 33.6802C109.9 30.6039 113.706 29.0701 118.39 29.0701C121.161 29.0787 123.669 29.6044 125.895 30.6384ZM113.408 38.1438C112.225 39.4104 111.489 41.1252 111.182 43.2881H125.564C125.415 40.9787 124.67 39.2295 123.338 38.0317C122.006 36.834 120.359 36.2394 118.39 36.2394C116.246 36.248 114.583 36.8771 113.408 38.1438Z" fill="#FF0137"/>
<path d="M156.295 29.1908C156.403 29.1994 156.643 29.2166 157.015 29.2338V38.1438C156.486 38.0834 156.022 38.0404 155.609 38.0231C155.195 38.0059 154.864 37.9887 154.616 37.9887C151.256 37.9887 149.005 39.1261 147.847 41.4096C147.202 42.6935 146.879 44.6668 146.879 47.3208V63.2104H138.472V29.9663H146.44V35.7655C147.731 33.5509 148.857 32.0343 149.808 31.2244C151.372 29.8629 153.399 29.1821 155.898 29.1821C156.055 29.1735 156.188 29.1735 156.295 29.1908Z" fill="#FF0137"/>
<path d="M171.165 29.3287H162.7V63.2105H171.165V29.3287Z" fill="#FF0137"/>
<path d="M197.205 41.8921C197.048 40.6513 196.65 39.5311 195.997 38.5401C195.062 37.1959 193.597 36.5324 191.619 36.5324C188.798 36.5324 186.87 37.9887 185.836 40.8926C185.289 42.435 185.016 44.4858 185.016 47.0364C185.016 49.4664 185.289 51.4225 185.836 52.9046C186.837 55.6706 188.715 57.0493 191.471 57.0493C193.432 57.0493 194.813 56.5065 195.641 55.4035C196.46 54.3091 196.965 52.8873 197.139 51.1295H205.661C205.463 53.7749 204.544 56.2738 202.906 58.6348C200.283 62.4349 196.41 64.3392 191.264 64.3392C186.125 64.3392 182.344 62.7537 179.919 59.5827C177.495 56.4117 176.287 52.2928 176.287 47.2432C176.287 41.5388 177.627 37.1011 180.3 33.9301C182.973 30.759 186.671 29.1735 191.38 29.1735C195.384 29.1735 198.661 30.1042 201.218 31.9826C203.767 33.8525 205.281 37.1614 205.744 41.8921H197.205Z" fill="#FF0137"/>
<path d="M224.23 42.9865C225.785 42.7883 226.894 42.5298 227.564 42.2196C228.764 41.6939 229.368 40.8667 229.368 39.7465C229.368 38.385 228.905 37.4458 227.986 36.9288C227.068 36.4118 225.711 36.1532 223.932 36.1532C221.929 36.1532 220.514 36.6616 219.687 37.6784C219.091 38.4281 218.694 39.4449 218.495 40.7288H210.444C210.618 37.8163 211.404 35.4294 212.802 33.5595C215.02 30.6298 218.826 29.1649 224.213 29.1649C227.721 29.1649 230.841 29.8887 233.563 31.3278C236.294 32.7754 237.659 35.4984 237.659 39.5052V54.7572C237.659 55.8171 237.676 57.0924 237.717 58.6004C237.775 59.7378 237.941 60.5133 238.214 60.9183C238.487 61.3233 238.9 61.6594 239.447 61.9265V63.2104H230.361C230.105 62.5383 229.931 61.9093 229.831 61.3233C229.732 60.7288 229.658 60.0653 229.6 59.3156C228.441 60.6167 227.109 61.7283 225.595 62.6417C223.791 63.7188 221.747 64.2617 219.463 64.2617C216.559 64.2617 214.159 63.4 212.265 61.6852C210.37 59.9705 209.418 57.5319 209.418 54.3781C209.418 50.2936 210.941 47.3294 213.994 45.5026C215.665 44.5031 218.123 43.7965 221.375 43.3656L224.23 42.9865ZM229.327 47.0451C228.797 47.3897 228.251 47.6741 227.705 47.8809C227.159 48.0963 226.414 48.2945 225.462 48.4755L223.559 48.8374C221.78 49.1648 220.498 49.5612 219.72 50.0265C218.404 50.8193 217.751 52.0515 217.751 53.7146C217.751 55.1967 218.148 56.2738 218.959 56.9287C219.761 57.5922 220.738 57.9196 221.888 57.9196C223.717 57.9196 225.388 57.3682 226.927 56.2738C228.466 55.1794 229.261 53.1717 229.318 50.2678L229.327 47.0451Z" fill="#FF0137"/>
<path d="M270.799 31.8706C272.892 33.6716 273.935 36.653 273.935 40.8236V63.2104H265.379V42.9865C265.379 41.2372 265.156 39.893 264.709 38.9624C263.898 37.2562 262.342 36.4031 260.058 36.4031C257.245 36.4031 255.317 37.6526 254.275 40.1515C253.728 41.4785 253.455 43.1588 253.455 45.2183V63.2191H245.106V30.0266H253.191V34.8779C254.258 33.1718 255.276 31.9396 256.227 31.1899C257.94 29.8456 260.108 29.1735 262.731 29.1735C266.024 29.1735 268.714 30.0697 270.799 31.8706Z" fill="#FF0137"/>
<path d="M293.827 42.9865C295.383 42.7883 296.491 42.5298 297.162 42.2196C298.361 41.6939 298.957 40.8667 298.957 39.7465C298.957 38.385 298.494 37.4458 297.575 36.9288C296.657 36.4118 295.3 36.1532 293.521 36.1532C291.518 36.1532 290.103 36.6616 289.276 37.6784C288.68 38.4281 288.283 39.4449 288.093 40.7288H280.042C280.215 37.8163 281.001 35.4294 282.392 33.5595C284.609 30.6298 288.415 29.1649 293.802 29.1649C297.311 29.1649 300.43 29.8887 303.161 31.3278C305.883 32.7754 307.248 35.4984 307.248 39.5052V54.7572C307.248 55.8171 307.265 57.0924 307.306 58.6004C307.364 59.7378 307.53 60.5133 307.803 60.9183C308.076 61.3233 308.49 61.6594 309.036 61.9265V63.2104H299.958C299.702 62.5383 299.528 61.9093 299.429 61.3233C299.33 60.7288 299.255 60.0653 299.197 59.3156C298.039 60.6167 296.707 61.7283 295.192 62.6417C293.388 63.7188 291.345 64.2617 289.061 64.2617C286.156 64.2617 283.757 63.4 281.862 61.6852C279.967 59.9705 279.016 57.5319 279.016 54.3781C279.016 50.2936 280.538 47.3294 283.591 45.5026C285.263 44.5031 287.72 43.7965 290.972 43.3656L293.827 42.9865ZM298.932 47.0451C298.395 47.3897 297.857 47.6741 297.319 47.8809C296.773 48.0963 296.028 48.2945 295.076 48.4755L293.173 48.8374C291.394 49.1648 290.112 49.5612 289.334 50.0265C288.018 50.8193 287.365 52.0515 287.365 53.7146C287.365 55.1967 287.77 56.2738 288.573 56.9287C289.375 57.5922 290.352 57.9196 291.502 57.9196C293.322 57.9196 295.01 57.3682 296.541 56.2738C298.08 55.1794 298.874 53.1717 298.932 50.2678V47.0451Z" fill="#FF0137"/>
<path d="M321.067 52.5945C321.241 54.1369 321.63 55.2399 322.217 55.8861C323.26 57.0408 325.179 57.6267 327.984 57.6267C329.631 57.6267 330.938 57.3769 331.915 56.8685C332.883 56.3601 333.371 55.6018 333.371 54.5764C333.371 53.6026 332.982 52.8616 332.196 52.3532C331.418 51.8448 328.506 50.9745 323.466 49.7336C319.834 48.7944 317.285 47.6311 315.796 46.2265C314.315 44.8392 313.57 42.8487 313.57 40.2464C313.57 37.1788 314.729 34.542 317.045 32.3274C319.362 30.1215 322.631 29.0185 326.834 29.0185C330.823 29.0185 334.083 29.8457 336.59 31.5002C339.105 33.1546 340.545 36.0241 340.918 40.0827H332.569C332.453 38.9625 332.147 38.0835 331.658 37.4286C330.74 36.2481 329.168 35.6536 326.958 35.6536C325.138 35.6536 323.839 35.9465 323.069 36.5411C322.3 37.127 321.911 37.825 321.911 38.6178C321.911 39.6173 322.325 40.3412 323.144 40.7806C323.963 41.2459 326.867 42.0473 331.857 43.1934C335.183 44.0034 337.674 45.2356 339.337 46.8814C340.975 48.5445 341.795 50.6298 341.795 53.1373C341.795 56.429 340.611 59.1175 338.261 61.2028C335.903 63.2881 332.262 64.3307 327.331 64.3307C322.3 64.3307 318.593 63.2278 316.193 61.0218C313.794 58.8159 312.602 56.0068 312.602 52.5858H321.067V52.5945Z" fill="#FF0137"/>
<path d="M341.249 12H16.0579V20.548H341.249V12Z" fill="#FF0137"/>
<path d="M341.249 70.3884H16.0579V78.9364H341.249V70.3884Z" fill="#FF0137"/>
</svg>
