<svg width="16" height="16" viewBox="0 0 16 16" fill="none" xmlns="http://www.w3.org/2000/svg">
<path fill-rule="evenodd" clip-rule="evenodd" d="M8.00008 1.99999C4.68637 1.99999 2.00008 4.68628 2.00008 7.99999C2.00008 11.3137 4.68637 14 8.00008 14C11.3138 14 14.0001 11.3137 14.0001 7.99999C14.0001 4.68628 11.3138 1.99999 8.00008 1.99999ZM0.666748 7.99999C0.666748 3.9499 3.94999 0.666656 8.00008 0.666656C12.0502 0.666656 15.3334 3.9499 15.3334 7.99999C15.3334 12.0501 12.0502 15.3333 8.00008 15.3333C3.94999 15.3333 0.666748 12.0501 0.666748 7.99999Z" fill="#FF0137"/>
<path fill-rule="evenodd" clip-rule="evenodd" d="M7.52851 4.86192C7.78886 4.60157 8.21097 4.60157 8.47132 4.86192L11.138 7.52859C11.3983 7.78893 11.3983 8.21104 11.138 8.47139L8.47132 11.1381C8.21097 11.3984 7.78886 11.3984 7.52851 11.1381C7.26816 10.8777 7.26816 10.4556 7.52851 10.1953L9.72378 7.99999L7.52851 5.80473C7.26816 5.54438 7.26816 5.12227 7.52851 4.86192Z" fill="#FF0137"/>
<path fill-rule="evenodd" clip-rule="evenodd" d="M4.66675 8.00001C4.66675 7.63182 4.96522 7.33334 5.33341 7.33334H10.6667C11.0349 7.33334 11.3334 7.63182 11.3334 8.00001C11.3334 8.3682 11.0349 8.66668 10.6667 8.66668H5.33341C4.96522 8.66668 4.66675 8.3682 4.66675 8.00001Z" fill="#FF0137"/>
</svg>
